# xmcd
#
# Track frame offsets: 
#        150
#        11000
#        54625
#        79620
#        121592
#        150651
#        187264
#        218283
#        242428
#
# Disc length: 3623 seconds
#
# Revision: 0
# Processed by: cddbd v1.5.2PL0 Copyright (c) Steve Scherf et al.
# Submitted via: ExactAudioCopy v0.99pb5
#
DISCID=650e2509
DTITLE=The Allman Brothers Band - 03-23-09 Beacon Theater
DYEAR=2009
DGENRE=Blues
TTITLE0=Announcements
TTITLE1=Soul Serenade
TTITLE2=Memphis Soul Stew
TTITLE3=Them Changes
TTITLE4=You Don't Love Me
TTITLE5=Little Martha
TTITLE6=I Walk On Guilded Splinters
TTITLE7=And It Stoned Me
TTITLE8=Can't Find My Way Home
EXTD=
EXTT0=
EXTT1=
EXTT2=
EXTT3=
EXTT4=
EXTT5=
EXTT6=
EXTT7=
EXTT8=
PLAYORDER=
